<svg width="185" height="194" viewBox="0 0 185 194" fill="none" xmlns="http://www.w3.org/2000/svg">
<path d="M1 102.984V101H17V102.984H1ZM20.2 102.984V101H36.2V102.984H20.2ZM39.4 102.984V101H55.4V102.984H39.4ZM58.6 102.984V101H74.6V102.984H58.6ZM77.8 102.984V101H93.8V102.984H77.8ZM97 102.984V101H113V102.984H97ZM116.2 102.984V101H132.2V102.984H116.2ZM135.4 102.984V101H151.4V102.984H135.4ZM154.6 102.984V101H170.6V102.984H154.6ZM0.976 130L8.584 113.2H10.96L18.592 130H16.072L9.28 114.544H10.24L3.448 130H0.976ZM4.216 125.8L4.864 123.88H14.32L15.016 125.8H4.216ZM30.1997 130.144C29.1117 130.144 28.1517 129.944 27.3197 129.544C26.5037 129.144 25.8637 128.536 25.3997 127.72C24.9517 126.888 24.7277 125.848 24.7277 124.6V117.28H27.0317V124.336C27.0317 125.584 27.3277 126.52 27.9197 127.144C28.5277 127.768 29.3757 128.08 30.4638 128.08C31.2638 128.08 31.9598 127.92 32.5518 127.6C33.1438 127.264 33.5998 126.784 33.9197 126.16C34.2398 125.52 34.3998 124.752 34.3998 123.856V117.28H36.7038V130H34.5198V126.568L34.8797 127.48C34.4637 128.328 33.8398 128.984 33.0078 129.448C32.1758 129.912 31.2397 130.144 30.1997 130.144ZM49.7779 130.144C48.4979 130.144 47.5059 129.8 46.8019 129.112C46.0979 128.424 45.7459 127.44 45.7459 126.16V114.496H48.0499V126.064C48.0499 126.752 48.2179 127.28 48.5539 127.648C48.9059 128.016 49.4019 128.2 50.0419 128.2C50.7619 128.2 51.3619 128 51.8419 127.6L52.5619 129.256C52.2099 129.56 51.7859 129.784 51.2899 129.928C50.8099 130.072 50.3059 130.144 49.7779 130.144ZM43.5859 119.176V117.28H51.6979V119.176H43.5859ZM64.6936 130.144C63.4136 130.144 62.2776 129.864 61.2856 129.304C60.2936 128.744 59.5096 127.976 58.9336 127C58.3576 126.008 58.0696 124.888 58.0696 123.64C58.0696 122.376 58.3576 121.256 58.9336 120.28C59.5096 119.304 60.2936 118.544 61.2856 118C62.2776 117.44 63.4136 117.16 64.6936 117.16C65.9576 117.16 67.0856 117.44 68.0776 118C69.0856 118.544 69.8696 119.304 70.4296 120.28C71.0056 121.24 71.2936 122.36 71.2936 123.64C71.2936 124.904 71.0056 126.024 70.4296 127C69.8696 127.976 69.0856 128.744 68.0776 129.304C67.0856 129.864 65.9576 130.144 64.6936 130.144ZM64.6936 128.128C65.5096 128.128 66.2376 127.944 66.8776 127.576C67.5336 127.208 68.0456 126.688 68.4136 126.016C68.7816 125.328 68.9656 124.536 68.9656 123.64C68.9656 122.728 68.7816 121.944 68.4136 121.288C68.0456 120.616 67.5336 120.096 66.8776 119.728C66.2376 119.36 65.5096 119.176 64.6936 119.176C63.8776 119.176 63.1496 119.36 62.5096 119.728C61.8696 120.096 61.3576 120.616 60.9736 121.288C60.5896 121.944 60.3976 122.728 60.3976 123.64C60.3976 124.536 60.5896 125.328 60.9736 126.016C61.3576 126.688 61.8696 127.208 62.5096 127.576C63.1496 127.944 63.8776 128.128 64.6936 128.128ZM94.7119 117.16C95.7359 117.16 96.6399 117.36 97.4239 117.76C98.2079 118.16 98.8159 118.768 99.2479 119.584C99.6959 120.4 99.9199 121.432 99.9199 122.68V130H97.6159V122.944C97.6159 121.712 97.3279 120.784 96.7519 120.16C96.1759 119.536 95.3679 119.224 94.3279 119.224C93.5599 119.224 92.8879 119.384 92.3119 119.704C91.7359 120.024 91.2879 120.496 90.9679 121.12C90.6639 121.744 90.5119 122.52 90.5119 123.448V130H88.2079V122.944C88.2079 121.712 87.9199 120.784 87.3439 120.16C86.7839 119.536 85.9759 119.224 84.9199 119.224C84.1679 119.224 83.5039 119.384 82.9279 119.704C82.3519 120.024 81.9039 120.496 81.5839 121.12C81.2639 121.744 81.1039 122.52 81.1039 123.448V130H78.7999V117.28H81.0079V120.664L80.6479 119.8C81.0479 118.968 81.6639 118.32 82.4959 117.856C83.3279 117.392 84.2959 117.16 85.3999 117.16C86.6159 117.16 87.6639 117.464 88.5439 118.072C89.4239 118.664 89.9999 119.568 90.2719 120.784L89.3359 120.4C89.7199 119.424 90.3919 118.64 91.3519 118.048C92.3119 117.456 93.4319 117.16 94.7119 117.16ZM116.375 130V127.312L116.255 126.808V122.224C116.255 121.248 115.967 120.496 115.391 119.968C114.831 119.424 113.983 119.152 112.847 119.152C112.095 119.152 111.359 119.28 110.639 119.536C109.919 119.776 109.311 120.104 108.815 120.52L107.855 118.792C108.511 118.264 109.295 117.864 110.207 117.592C111.135 117.304 112.103 117.16 113.111 117.16C114.855 117.16 116.199 117.584 117.143 118.432C118.087 119.28 118.559 120.576 118.559 122.32V130H116.375ZM112.199 130.144C111.255 130.144 110.423 129.984 109.703 129.664C108.999 129.344 108.455 128.904 108.071 128.344C107.687 127.768 107.495 127.12 107.495 126.4C107.495 125.712 107.655 125.088 107.975 124.528C108.311 123.968 108.847 123.52 109.583 123.184C110.335 122.848 111.343 122.68 112.607 122.68H116.639V124.336H112.703C111.551 124.336 110.775 124.528 110.375 124.912C109.975 125.296 109.775 125.76 109.775 126.304C109.775 126.928 110.023 127.432 110.519 127.816C111.015 128.184 111.703 128.368 112.583 128.368C113.447 128.368 114.199 128.176 114.839 127.792C115.495 127.408 115.967 126.848 116.255 126.112L116.711 127.696C116.407 128.448 115.871 129.048 115.103 129.496C114.335 129.928 113.367 130.144 112.199 130.144ZM131.511 130.144C130.231 130.144 129.239 129.8 128.535 129.112C127.831 128.424 127.479 127.44 127.479 126.16V114.496H129.783V126.064C129.783 126.752 129.951 127.28 130.287 127.648C130.639 128.016 131.135 128.2 131.775 128.2C132.495 128.2 133.095 128 133.575 127.6L134.295 129.256C133.943 129.56 133.519 129.784 133.023 129.928C132.543 130.072 132.039 130.144 131.511 130.144ZM125.319 119.176V117.28H133.431V119.176H125.319ZM146.643 130.144C145.283 130.144 144.083 129.864 143.043 129.304C142.019 128.744 141.219 127.976 140.643 127C140.083 126.024 139.803 124.904 139.803 123.64C139.803 122.376 140.075 121.256 140.619 120.28C141.179 119.304 141.939 118.544 142.899 118C143.875 117.44 144.971 117.16 146.187 117.16C147.419 117.16 148.507 117.432 149.451 117.976C150.395 118.52 151.131 119.288 151.659 120.28C152.203 121.256 152.475 122.4 152.475 123.712C152.475 123.808 152.467 123.92 152.451 124.048C152.451 124.176 152.443 124.296 152.427 124.408H141.603V122.752H151.227L150.291 123.328C150.307 122.512 150.139 121.784 149.787 121.144C149.435 120.504 148.947 120.008 148.323 119.656C147.715 119.288 147.003 119.104 146.187 119.104C145.387 119.104 144.675 119.288 144.051 119.656C143.427 120.008 142.939 120.512 142.587 121.168C142.235 121.808 142.059 122.544 142.059 123.376V123.76C142.059 124.608 142.251 125.368 142.635 126.04C143.035 126.696 143.587 127.208 144.291 127.576C144.995 127.944 145.803 128.128 146.715 128.128C147.467 128.128 148.147 128 148.755 127.744C149.379 127.488 149.923 127.104 150.387 126.592L151.659 128.08C151.083 128.752 150.363 129.264 149.499 129.616C148.651 129.968 147.699 130.144 146.643 130.144ZM165.25 130.144C164.018 130.144 162.914 129.872 161.938 129.328C160.978 128.784 160.218 128.024 159.658 127.048C159.098 126.072 158.818 124.936 158.818 123.64C158.818 122.344 159.098 121.216 159.658 120.256C160.218 119.28 160.978 118.52 161.938 117.976C162.914 117.432 164.018 117.16 165.25 117.16C166.322 117.16 167.29 117.4 168.154 117.88C169.018 118.36 169.706 119.08 170.218 120.04C170.746 121 171.01 122.2 171.01 123.64C171.01 125.08 170.754 126.28 170.242 127.24C169.746 128.2 169.066 128.928 168.202 129.424C167.338 129.904 166.354 130.144 165.25 130.144ZM165.442 128.128C166.242 128.128 166.962 127.944 167.602 127.576C168.258 127.208 168.77 126.688 169.138 126.016C169.522 125.328 169.714 124.536 169.714 123.64C169.714 122.728 169.522 121.944 169.138 121.288C168.77 120.616 168.258 120.096 167.602 119.728C166.962 119.36 166.242 119.176 165.442 119.176C164.626 119.176 163.898 119.36 163.258 119.728C162.618 120.096 162.106 120.616 161.722 121.288C161.338 121.944 161.146 122.728 161.146 123.64C161.146 124.536 161.338 125.328 161.722 126.016C162.106 126.688 162.618 127.208 163.258 127.576C163.898 127.944 164.626 128.128 165.442 128.128ZM169.786 130V126.568L169.93 123.616L169.69 120.664V112.192H171.994V130H169.786ZM3.52 159V142.2H5.92V159H3.52ZM21.7257 146.16C22.7657 146.16 23.6777 146.36 24.4617 146.76C25.2617 147.16 25.8857 147.768 26.3337 148.584C26.7817 149.4 27.0057 150.432 27.0057 151.68V159H24.7017V151.944C24.7017 150.712 24.3977 149.784 23.7897 149.16C23.1977 148.536 22.3577 148.224 21.2697 148.224C20.4537 148.224 19.7417 148.384 19.1337 148.704C18.5257 149.024 18.0537 149.496 17.7177 150.12C17.3977 150.744 17.2377 151.52 17.2377 152.448V159H14.9337V146.28H17.1417V149.712L16.7817 148.8C17.1977 147.968 17.8377 147.32 18.7017 146.856C19.5657 146.392 20.5737 146.16 21.7257 146.16ZM39.9576 159.144C38.6776 159.144 37.6856 158.8 36.9816 158.112C36.2776 157.424 35.9256 156.44 35.9256 155.16V143.496H38.2296V155.064C38.2296 155.752 38.3976 156.28 38.7336 156.648C39.0856 157.016 39.5816 157.2 40.2216 157.2C40.9416 157.2 41.5416 157 42.0216 156.6L42.7416 158.256C42.3896 158.56 41.9656 158.784 41.4696 158.928C40.9896 159.072 40.4856 159.144 39.9576 159.144ZM33.7656 148.176V146.28H41.8776V148.176H33.7656ZM55.0892 159.144C53.7292 159.144 52.5292 158.864 51.4892 158.304C50.4652 157.744 49.6652 156.976 49.0892 156C48.5292 155.024 48.2492 153.904 48.2492 152.64C48.2492 151.376 48.5212 150.256 49.0652 149.28C49.6252 148.304 50.3852 147.544 51.3452 147C52.3212 146.44 53.4172 146.16 54.6332 146.16C55.8652 146.16 56.9532 146.432 57.8972 146.976C58.8412 147.52 59.5772 148.288 60.1052 149.28C60.6493 150.256 60.9213 151.4 60.9213 152.712C60.9213 152.808 60.9132 152.92 60.8972 153.048C60.8972 153.176 60.8892 153.296 60.8732 153.408H50.0492V151.752H59.6732L58.7372 152.328C58.7532 151.512 58.5852 150.784 58.2332 150.144C57.8812 149.504 57.3932 149.008 56.7692 148.656C56.1612 148.288 55.4492 148.104 54.6332 148.104C53.8332 148.104 53.1212 148.288 52.4972 148.656C51.8732 149.008 51.3852 149.512 51.0332 150.168C50.6812 150.808 50.5052 151.544 50.5052 152.376V152.76C50.5052 153.608 50.6972 154.368 51.0812 155.04C51.4812 155.696 52.0332 156.208 52.7372 156.576C53.4412 156.944 54.2492 157.128 55.1612 157.128C55.9132 157.128 56.5932 157 57.2012 156.744C57.8252 156.488 58.3692 156.104 58.8332 155.592L60.1052 157.08C59.5292 157.752 58.8092 158.264 57.9452 158.616C57.0972 158.968 56.1452 159.144 55.0892 159.144ZM68.4406 159V141.192H70.7446V159H68.4406ZM79.4637 159V141.192H81.7677V159H79.4637ZM90.4868 159V146.28H92.7908V159H90.4868ZM91.6388 143.832C91.1908 143.832 90.8148 143.688 90.5108 143.4C90.2228 143.112 90.0788 142.76 90.0788 142.344C90.0788 141.912 90.2228 141.552 90.5108 141.264C90.8148 140.976 91.1908 140.832 91.6388 140.832C92.0868 140.832 92.4548 140.976 92.7428 141.264C93.0468 141.536 93.1988 141.88 93.1988 142.296C93.1988 142.728 93.0548 143.096 92.7668 143.4C92.4788 143.688 92.1028 143.832 91.6388 143.832ZM107.078 163.8C105.91 163.8 104.774 163.632 103.67 163.296C102.582 162.976 101.694 162.512 101.006 161.904L102.11 160.128C102.702 160.64 103.43 161.04 104.294 161.328C105.158 161.632 106.062 161.784 107.006 161.784C108.51 161.784 109.614 161.432 110.318 160.728C111.022 160.024 111.374 158.952 111.374 157.512V154.824L111.614 152.304L111.494 149.76V146.28H113.678V157.272C113.678 159.512 113.118 161.16 111.998 162.216C110.878 163.272 109.238 163.8 107.078 163.8ZM106.79 158.472C105.558 158.472 104.454 158.216 103.478 157.704C102.518 157.176 101.75 156.448 101.174 155.52C100.614 154.592 100.334 153.52 100.334 152.304C100.334 151.072 100.614 150 101.174 149.088C101.75 148.16 102.518 147.44 103.478 146.928C104.454 146.416 105.558 146.16 106.79 146.16C107.878 146.16 108.87 146.384 109.766 146.832C110.662 147.264 111.374 147.936 111.902 148.848C112.446 149.76 112.718 150.912 112.718 152.304C112.718 153.68 112.446 154.824 111.902 155.736C111.374 156.648 110.662 157.336 109.766 157.8C108.87 158.248 107.878 158.472 106.79 158.472ZM107.054 156.456C107.902 156.456 108.654 156.28 109.31 155.928C109.966 155.576 110.478 155.088 110.846 154.464C111.23 153.84 111.422 153.12 111.422 152.304C111.422 151.488 111.23 150.768 110.846 150.144C110.478 149.52 109.966 149.04 109.31 148.704C108.654 148.352 107.902 148.176 107.054 148.176C106.206 148.176 105.446 148.352 104.774 148.704C104.118 149.04 103.598 149.52 103.214 150.144C102.846 150.768 102.662 151.488 102.662 152.304C102.662 153.12 102.846 153.84 103.214 154.464C103.598 155.088 104.118 155.576 104.774 155.928C105.446 156.28 106.206 156.456 107.054 156.456ZM128.064 159.144C126.704 159.144 125.504 158.864 124.464 158.304C123.44 157.744 122.64 156.976 122.064 156C121.504 155.024 121.224 153.904 121.224 152.64C121.224 151.376 121.496 150.256 122.04 149.28C122.6 148.304 123.36 147.544 124.32 147C125.296 146.44 126.392 146.16 127.608 146.16C128.84 146.16 129.928 146.432 130.872 146.976C131.816 147.52 132.552 148.288 133.08 149.28C133.624 150.256 133.896 151.4 133.896 152.712C133.896 152.808 133.888 152.92 133.872 153.048C133.872 153.176 133.864 153.296 133.848 153.408H123.024V151.752H132.648L131.712 152.328C131.728 151.512 131.56 150.784 131.208 150.144C130.856 149.504 130.368 149.008 129.744 148.656C129.136 148.288 128.424 148.104 127.608 148.104C126.808 148.104 126.096 148.288 125.472 148.656C124.848 149.008 124.36 149.512 124.008 150.168C123.656 150.808 123.48 151.544 123.48 152.376V152.76C123.48 153.608 123.672 154.368 124.056 155.04C124.456 155.696 125.008 156.208 125.712 156.576C126.416 156.944 127.224 157.128 128.136 157.128C128.888 157.128 129.568 157 130.176 156.744C130.8 156.488 131.344 156.104 131.808 155.592L133.08 157.08C132.504 157.752 131.784 158.264 130.92 158.616C130.072 158.968 129.12 159.144 128.064 159.144ZM148.208 146.16C149.248 146.16 150.16 146.36 150.944 146.76C151.744 147.16 152.368 147.768 152.816 148.584C153.264 149.4 153.488 150.432 153.488 151.68V159H151.184V151.944C151.184 150.712 150.88 149.784 150.272 149.16C149.68 148.536 148.84 148.224 147.752 148.224C146.936 148.224 146.224 148.384 145.616 148.704C145.008 149.024 144.536 149.496 144.2 150.12C143.88 150.744 143.72 151.52 143.72 152.448V159H141.416V146.28H143.624V149.712L143.264 148.8C143.68 147.968 144.32 147.32 145.184 146.856C146.048 146.392 147.056 146.16 148.208 146.16ZM166.439 159.144C165.159 159.144 164.167 158.8 163.463 158.112C162.759 157.424 162.407 156.44 162.407 155.16V143.496H164.711V155.064C164.711 155.752 164.879 156.28 165.215 156.648C165.567 157.016 166.063 157.2 166.703 157.2C167.423 157.2 168.023 157 168.503 156.6L169.223 158.256C168.871 158.56 168.447 158.784 167.951 158.928C167.471 159.072 166.967 159.144 166.439 159.144ZM160.247 148.176V146.28H168.359V148.176H160.247ZM8.416 188.192C7.136 188.192 5.912 188 4.744 187.616C3.576 187.216 2.656 186.704 1.984 186.08L2.872 184.208C3.512 184.768 4.328 185.232 5.32 185.6C6.312 185.968 7.344 186.152 8.416 186.152C9.392 186.152 10.184 186.04 10.792 185.816C11.4 185.592 11.848 185.288 12.136 184.904C12.424 184.504 12.568 184.056 12.568 183.56C12.568 182.984 12.376 182.52 11.992 182.168C11.624 181.816 11.136 181.536 10.528 181.328C9.936 181.104 9.28 180.912 8.56 180.752C7.84 180.592 7.112 180.408 6.376 180.2C5.656 179.976 4.992 179.696 4.384 179.36C3.792 179.024 3.312 178.576 2.944 178.016C2.576 177.44 2.392 176.704 2.392 175.808C2.392 174.944 2.616 174.152 3.064 173.432C3.528 172.696 4.232 172.112 5.176 171.68C6.136 171.232 7.352 171.008 8.824 171.008C9.8 171.008 10.768 171.136 11.728 171.392C12.688 171.648 13.52 172.016 14.224 172.496L13.432 174.416C12.712 173.936 11.952 173.592 11.152 173.384C10.352 173.16 9.576 173.048 8.824 173.048C7.88 173.048 7.104 173.168 6.496 173.408C5.888 173.648 5.44 173.968 5.152 174.368C4.88 174.768 4.744 175.216 4.744 175.712C4.744 176.304 4.928 176.776 5.296 177.128C5.68 177.48 6.168 177.76 6.76 177.968C7.368 178.176 8.032 178.368 8.752 178.544C9.472 178.704 10.192 178.888 10.912 179.096C11.648 179.304 12.312 179.576 12.904 179.912C13.512 180.248 14 180.696 14.368 181.256C14.736 181.816 14.92 182.536 14.92 183.416C14.92 184.264 14.688 185.056 14.224 185.792C13.76 186.512 13.04 187.096 12.064 187.544C11.104 187.976 9.888 188.192 8.416 188.192ZM22.7279 192.8C22.1199 192.8 21.5279 192.696 20.9519 192.488C20.3759 192.296 19.8799 192.008 19.4639 191.624L20.4479 189.896C20.7679 190.2 21.1199 190.432 21.5039 190.592C21.8879 190.752 22.2959 190.832 22.7279 190.832C23.2879 190.832 23.7519 190.688 24.1199 190.4C24.4879 190.112 24.8319 189.6 25.1519 188.864L25.9439 187.112L26.1839 186.824L31.1759 175.28H33.4319L27.2639 189.272C26.8959 190.168 26.4799 190.872 26.0159 191.384C25.5679 191.896 25.0719 192.256 24.5279 192.464C23.9839 192.688 23.3839 192.8 22.7279 192.8ZM25.7519 188.408L19.9439 175.28H22.3439L27.2879 186.608L25.7519 188.408ZM43.3861 188.144C42.3301 188.144 41.3221 188 40.3621 187.712C39.4181 187.424 38.6741 187.072 38.1301 186.656L39.0901 184.832C39.6341 185.2 40.3061 185.512 41.1061 185.768C41.9061 186.024 42.7221 186.152 43.5541 186.152C44.6261 186.152 45.3941 186 45.8581 185.696C46.3381 185.392 46.5781 184.968 46.5781 184.424C46.5781 184.024 46.4341 183.712 46.1461 183.488C45.8581 183.264 45.4741 183.096 44.9941 182.984C44.5301 182.872 44.0101 182.776 43.4341 182.696C42.8581 182.6 42.2821 182.488 41.7061 182.36C41.1301 182.216 40.6021 182.024 40.1221 181.784C39.6421 181.528 39.2581 181.184 38.9701 180.752C38.6821 180.304 38.5381 179.712 38.5381 178.976C38.5381 178.208 38.7541 177.536 39.1861 176.96C39.6181 176.384 40.2261 175.944 41.0101 175.64C41.8101 175.32 42.7541 175.16 43.8421 175.16C44.6741 175.16 45.5141 175.264 46.3621 175.472C47.2261 175.664 47.9301 175.944 48.4741 176.312L47.4901 178.136C46.9141 177.752 46.3141 177.488 45.6901 177.344C45.0661 177.2 44.4421 177.128 43.8181 177.128C42.8101 177.128 42.0581 177.296 41.5621 177.632C41.0661 177.952 40.8181 178.368 40.8181 178.88C40.8181 179.312 40.9621 179.648 41.2501 179.888C41.5541 180.112 41.9381 180.288 42.4021 180.416C42.8821 180.544 43.4101 180.656 43.9861 180.752C44.5621 180.832 45.1381 180.944 45.7141 181.088C46.2901 181.216 46.8101 181.4 47.2741 181.64C47.7541 181.88 48.1381 182.216 48.4261 182.648C48.7301 183.08 48.8821 183.656 48.8821 184.376C48.8821 185.144 48.6581 185.808 48.2101 186.368C47.7621 186.928 47.1301 187.368 46.3141 187.688C45.4981 187.992 44.5221 188.144 43.3861 188.144ZM60.4495 188.144C59.1695 188.144 58.1775 187.8 57.4735 187.112C56.7695 186.424 56.4175 185.44 56.4175 184.16V172.496H58.7215V184.064C58.7215 184.752 58.8895 185.28 59.2255 185.648C59.5775 186.016 60.0735 186.2 60.7135 186.2C61.4335 186.2 62.0335 186 62.5135 185.6L63.2335 187.256C62.8815 187.56 62.4575 187.784 61.9615 187.928C61.4815 188.072 60.9775 188.144 60.4495 188.144ZM54.2575 177.176V175.28H62.3695V177.176H54.2575ZM75.5811 188.144C74.2211 188.144 73.0211 187.864 71.9811 187.304C70.9571 186.744 70.1571 185.976 69.5811 185C69.0211 184.024 68.7411 182.904 68.7411 181.64C68.7411 180.376 69.0131 179.256 69.5571 178.28C70.1171 177.304 70.8771 176.544 71.8371 176C72.8131 175.44 73.9091 175.16 75.1251 175.16C76.3571 175.16 77.4451 175.432 78.3891 175.976C79.3331 176.52 80.0691 177.288 80.5971 178.28C81.1411 179.256 81.4131 180.4 81.4131 181.712C81.4131 181.808 81.4051 181.92 81.3891 182.048C81.3891 182.176 81.3811 182.296 81.3651 182.408H70.5411V180.752H80.1651L79.2291 181.328C79.2451 180.512 79.0771 179.784 78.7251 179.144C78.3731 178.504 77.8851 178.008 77.2611 177.656C76.6531 177.288 75.9411 177.104 75.1251 177.104C74.3251 177.104 73.6131 177.288 72.9891 177.656C72.3651 178.008 71.8771 178.512 71.5251 179.168C71.1731 179.808 70.9971 180.544 70.9971 181.376V181.76C70.9971 182.608 71.1891 183.368 71.5731 184.04C71.9731 184.696 72.5251 185.208 73.2291 185.576C73.9331 185.944 74.7411 186.128 75.6531 186.128C76.4051 186.128 77.0851 186 77.6931 185.744C78.3171 185.488 78.8611 185.104 79.3251 184.592L80.5971 186.08C80.0211 186.752 79.3011 187.264 78.4371 187.616C77.5891 187.968 76.6371 188.144 75.5811 188.144ZM104.844 175.16C105.868 175.16 106.772 175.36 107.556 175.76C108.34 176.16 108.948 176.768 109.38 177.584C109.828 178.4 110.052 179.432 110.052 180.68V188H107.748V180.944C107.748 179.712 107.46 178.784 106.884 178.16C106.308 177.536 105.5 177.224 104.46 177.224C103.692 177.224 103.02 177.384 102.444 177.704C101.868 178.024 101.42 178.496 101.1 179.12C100.796 179.744 100.644 180.52 100.644 181.448V188H98.3404V180.944C98.3404 179.712 98.0524 178.784 97.4764 178.16C96.9164 177.536 96.1084 177.224 95.0524 177.224C94.3004 177.224 93.6364 177.384 93.0604 177.704C92.4844 178.024 92.0364 178.496 91.7164 179.12C91.3964 179.744 91.2364 180.52 91.2364 181.448V188H88.9324V175.28H91.1404V178.664L90.7804 177.8C91.1804 176.968 91.7964 176.32 92.6284 175.856C93.4604 175.392 94.4284 175.16 95.5324 175.16C96.7484 175.16 97.7964 175.464 98.6764 176.072C99.5564 176.664 100.132 177.568 100.404 178.784L99.4684 178.4C99.8524 177.424 100.524 176.64 101.484 176.048C102.444 175.456 103.564 175.16 104.844 175.16Z" fill="#FFB900"/>
<path d="M2.57775 85L22.5457 40.2H32.7857L52.8177 85H41.9377L25.5537 45.448H29.6497L13.2017 85H2.57775ZM12.5617 75.4L15.3137 67.528H38.3537L41.1698 75.4H12.5617ZM70.9057 85V40.2H81.2737V85H70.9057ZM120.066 85.768C116.482 85.768 113.047 85.2987 109.762 84.36C106.476 83.3787 103.831 82.12 101.826 80.584L105.346 72.776C107.266 74.1413 109.527 75.272 112.13 76.168C114.775 77.0213 117.442 77.448 120.13 77.448C122.178 77.448 123.82 77.256 125.058 76.872C126.338 76.4453 127.276 75.8693 127.874 75.144C128.471 74.4187 128.77 73.5867 128.77 72.648C128.77 71.4533 128.3 70.5147 127.362 69.832C126.423 69.1067 125.186 68.5307 123.65 68.104C122.114 67.6347 120.407 67.208 118.53 66.824C116.695 66.3973 114.839 65.8853 112.962 65.288C111.127 64.6907 109.442 63.9227 107.906 62.984C106.37 62.0453 105.111 60.808 104.13 59.272C103.191 57.736 102.722 55.7733 102.722 53.384C102.722 50.824 103.404 48.4987 104.77 46.408C106.178 44.2747 108.268 42.5893 111.042 41.352C113.858 40.072 117.378 39.432 121.602 39.432C124.418 39.432 127.191 39.7733 129.922 40.456C132.652 41.096 135.063 42.0773 137.154 43.4L133.954 51.272C131.863 50.0773 129.772 49.2027 127.682 48.648C125.591 48.0507 123.543 47.752 121.538 47.752C119.532 47.752 117.89 47.9867 116.61 48.456C115.33 48.9253 114.412 49.544 113.858 50.312C113.303 51.0373 113.026 51.8907 113.026 52.872C113.026 54.024 113.495 54.9627 114.434 55.688C115.372 56.3707 116.61 56.9253 118.146 57.352C119.682 57.7787 121.367 58.2053 123.202 58.632C125.079 59.0587 126.935 59.5493 128.77 60.104C130.647 60.6587 132.354 61.4053 133.89 62.344C135.426 63.2827 136.663 64.52 137.602 66.056C138.583 67.592 139.074 69.5333 139.074 71.88C139.074 74.3973 138.37 76.7013 136.962 78.792C135.554 80.8827 133.442 82.568 130.626 83.848C127.852 85.128 124.332 85.768 120.066 85.768Z" fill="#FFB900"/>
</svg>
